# xmcd CD database file
#
# Track frame offsets:
#	150
#	11068
#	26589
#	39911
#	52270
#	66725
#	80438
#	99498
#	119538
#	131074
#	143364
#	156227
#	171658
#	187030
#	203732
#	217453
#
# Disc length: 3094 seconds
#
# Revision: 0
# Processed by: cddbd v1.5.2PL0 Copyright (c) Steve Scherf et al.
# Submitted via: CDex 1.70beta1
#
DISCID=f80c1410
DTITLE=George Melly and The Mick Mulligan Jazz Band - Nothing Prsonal CD 02
DYEAR=1900
DGENRE=Jazz
TTITLE0=King Of The Zulus
TTITLE1=Shine
TTITLE2=Pleadin' For The Blues
TTITLE3=Take Me For A Buggy Ride
TTITLE4=Root Doctor
TTITLE5=1919 Rag
TTITLE6=Candy Lips
TTITLE7=Savoy Blues
TTITLE8=How long Blues
TTITLE9=Skid-dat-De-Dat
TTITLE10=The Curse
TTITLE11=Down In Honky Tonk Town
TTITLE12=Rock Island Line
TTITLE13=Send Me To The lectric Chair
TTITLE14=Kitchen Man
TTITLE15=Jazzbo Brown From Memphis Town
EXTD=
EXTT0=
EXTT1=
EXTT2=
EXTT3=
EXTT4=
EXTT5=
EXTT6=
EXTT7=
EXTT8=
EXTT9=
EXTT10=
EXTT11=
EXTT12=
EXTT13=
EXTT14=
EXTT15=
PLAYORDER=
